<svg xmlns="http://www.w3.org/2000/svg" width="100" height="100" viewBox="0 0 100 100">
  <g>
    <rect x="80" y="10" width="10" height="10" fill="#000"/>
    <polygon points="90 20 90 60 80 60 80 20 70 20 70 60 10 60 10 10 60 10 60 20 70 20 70 10 80 10 80 0 10 0 0 0 0 60 0 70 20 70 20 80 30 80 30 70 60 70 60 80 70 80 70 70 80 70 80 80 90 80 90 70 100 70 100 60 100 20 90 20" fill="#000"/>
    <polygon points="80 90 80 80 70 80 70 90 20 90 20 80 10 80 10 90 0 90 0 100 100 100 100 90 100 80 90 80 90 90 80 90" fill="#000"/>
    <polygon points="50 20 20 20 20 50 60 50 60 30 50 30 50 20" fill="#000"/>
  </g>
</svg>
