<svg xmlns="http://www.w3.org/2000/svg" width="30" height="30" viewBox="0 0 30 30">
  <g>
    <rect x="4.286" y="4.286" width="4.286" height="4.286" fill="#000"/>
    <rect x="21.429" y="4.286" width="4.286" height="4.286" fill="#000"/>
    <polygon points="30 17.143 30 12.857 21.429 12.857 21.429 8.571 17.143 8.571 17.143 0 12.857 0 12.857 8.571 8.571 8.571 8.571 12.857 0 12.857 0 17.143 8.571 17.143 8.571 21.429 12.857 21.429 12.857 30 17.143 30 17.143 21.429 21.429 21.429 21.429 17.143 30 17.143" fill="#000"/>
    <rect x="21.429" y="21.429" width="4.286" height="4.286" fill="#000"/>
    <rect x="4.286" y="21.429" width="4.286" height="4.286" fill="#000"/>
  </g>
</svg>
