<svg xmlns="http://www.w3.org/2000/svg" width="100" height="100" viewBox="0 0 100 100">
  <g>
    <rect y="30" width="10" height="40"/>
    <rect x="10" y="70" width="10" height="10"/>
    <rect x="20" y="80" width="10" height="10"/>
    <rect x="30" y="90" width="40" height="10"/>
    <rect x="70" y="80" width="10" height="10"/>
    <rect x="80" y="70" width="10" height="10"/>
    <rect x="90" y="30" width="10" height="40"/>
    <rect x="10" y="20" width="10" height="10"/>
    <rect x="20" y="10" width="10" height="10"/>
    <rect x="30" width="40" height="10"/>
    <rect x="70" y="10" width="10" height="10"/>
    <rect x="80" y="20" width="10" height="10"/>
    <rect x="50" y="20" width="10" height="10"/>
    <rect x="40" y="40" width="20" height="10"/>
    <rect x="50" y="50" width="10" height="10"/>
    <rect x="40" y="60" width="10" height="20"/>
    <rect x="50" y="70" width="10" height="10"/>
    <rect x="10" y="10" width="10" height="10"/>
    <rect x="10" y="80" width="10" height="10"/>
    <rect x="80" y="80" width="10" height="10"/>
    <rect x="80" y="10" width="10" height="10"/>
  </g>
</svg>
